<svg id="visual" viewBox="0 0 900 600" width="900" height="600" xmlns="http://www.w3.org/2000/svg" xmlns:xlink="http://www.w3.org/1999/xlink" version="1.1"><g stroke-width="1" stroke-linejoin="bevel"><path d="M499 297L468 375L560 381Z" fill="#1d4e6b" stroke="#1d4e6b"></path><path d="M560 381L583 291L499 297Z" fill="#1d4e6b" stroke="#1d4e6b"></path><path d="M417 192L396 291L499 297Z" fill="#277297" stroke="#277297"></path><path d="M499 297L396 291L468 375Z" fill="#00101c" stroke="#00101c"></path><path d="M463 532L623 463L560 381Z" fill="#0c2435" stroke="#0c2435"></path><path d="M560 381L706 374L583 291Z" fill="#1d4e6b" stroke="#1d4e6b"></path><path d="M583 291L511 183L499 297Z" fill="#00101c" stroke="#00101c"></path><path d="M396 291L365 431L468 375Z" fill="#00101c" stroke="#00101c"></path><path d="M468 375L463 532L560 381Z" fill="#081a28" stroke="#081a28"></path><path d="M511 183L417 192L499 297Z" fill="#1d4e6b" stroke="#1d4e6b"></path><path d="M396 291L326 278L365 431Z" fill="#00101c" stroke="#00101c"></path><path d="M583 291L571 168L511 183Z" fill="#0c2435" stroke="#0c2435"></path><path d="M511 183L512 112L417 192Z" fill="#246688" stroke="#246688"></path><path d="M697 194L571 168L583 291Z" fill="#277297" stroke="#277297"></path><path d="M365 431L463 532L468 375Z" fill="#00101c" stroke="#00101c"></path><path d="M623 463L706 374L560 381Z" fill="#112e42" stroke="#112e42"></path><path d="M417 192L326 278L396 291Z" fill="#277297" stroke="#277297"></path><path d="M588 600L680 483L623 463Z" fill="#1d4e6b" stroke="#1d4e6b"></path><path d="M623 463L680 483L706 374Z" fill="#19435d" stroke="#19435d"></path><path d="M365 431L368 502L463 532Z" fill="#112e42" stroke="#112e42"></path><path d="M331 475L368 502L365 431Z" fill="#297ea6" stroke="#297ea6"></path><path d="M267 421L331 475L365 431Z" fill="#1d4e6b" stroke="#1d4e6b"></path><path d="M795 371L738 312L706 374Z" fill="#1d4e6b" stroke="#1d4e6b"></path><path d="M706 374L738 312L583 291Z" fill="#15384f" stroke="#15384f"></path><path d="M683 121L570 128L571 168Z" fill="#1d4e6b" stroke="#1d4e6b"></path><path d="M571 168L570 128L511 183Z" fill="#1d4e6b" stroke="#1d4e6b"></path><path d="M570 128L512 112L511 183Z" fill="#277297" stroke="#277297"></path><path d="M738 312L697 194L583 291Z" fill="#19435d" stroke="#19435d"></path><path d="M363 600L463 532L368 502Z" fill="#297ea6" stroke="#297ea6"></path><path d="M363 600L476 600L463 532Z" fill="#00101c" stroke="#00101c"></path><path d="M463 532L588 600L623 463Z" fill="#0c2435" stroke="#0c2435"></path><path d="M326 278L267 421L365 431Z" fill="#00101c" stroke="#00101c"></path><path d="M322 600L363 600L368 502Z" fill="#00101c" stroke="#00101c"></path><path d="M476 600L588 600L463 532Z" fill="#205a7a" stroke="#205a7a"></path><path d="M512 112L392 109L417 192Z" fill="#112e42" stroke="#112e42"></path><path d="M417 192L263 163L326 278Z" fill="#19435d" stroke="#19435d"></path><path d="M326 278L233 405L267 421Z" fill="#15384f" stroke="#15384f"></path><path d="M680 483L795 371L706 374Z" fill="#297ea6" stroke="#297ea6"></path><path d="M738 312L793 239L697 194Z" fill="#1d4e6b" stroke="#1d4e6b"></path><path d="M836 531L795 371L680 483Z" fill="#297ea6" stroke="#297ea6"></path><path d="M803 112L683 121L697 194Z" fill="#0c2435" stroke="#0c2435"></path><path d="M697 194L683 121L571 168Z" fill="#112e42" stroke="#112e42"></path><path d="M616 0L465 0L512 112Z" fill="#19435d" stroke="#19435d"></path><path d="M186 262L233 405L326 278Z" fill="#1d4e6b" stroke="#1d4e6b"></path><path d="M322 600L368 502L331 475Z" fill="#277297" stroke="#277297"></path><path d="M322 600L331 475L189 509Z" fill="#112e42" stroke="#112e42"></path><path d="M835 323L793 239L738 312Z" fill="#297ea6" stroke="#297ea6"></path><path d="M588 600L699 600L680 483Z" fill="#112e42" stroke="#112e42"></path><path d="M392 109L263 163L417 192Z" fill="#205a7a" stroke="#205a7a"></path><path d="M189 509L331 475L267 421Z" fill="#15384f" stroke="#15384f"></path><path d="M370 0L331 90L392 109Z" fill="#112e42" stroke="#112e42"></path><path d="M392 109L331 90L263 163Z" fill="#112e42" stroke="#112e42"></path><path d="M465 0L392 109L512 112Z" fill="#246688" stroke="#246688"></path><path d="M900 370L835 323L795 371Z" fill="#00101c" stroke="#00101c"></path><path d="M795 371L835 323L738 312Z" fill="#00101c" stroke="#00101c"></path><path d="M208 73L212 211L263 163Z" fill="#246688" stroke="#246688"></path><path d="M263 163L212 211L326 278Z" fill="#297ea6" stroke="#297ea6"></path><path d="M212 211L186 262L326 278Z" fill="#297ea6" stroke="#297ea6"></path><path d="M616 0L512 112L570 128Z" fill="#277297" stroke="#277297"></path><path d="M676 0L616 0L683 121Z" fill="#277297" stroke="#277297"></path><path d="M683 121L616 0L570 128Z" fill="#00101c" stroke="#00101c"></path><path d="M135 480L189 509L233 405Z" fill="#1d4e6b" stroke="#1d4e6b"></path><path d="M233 405L189 509L267 421Z" fill="#0c2435" stroke="#0c2435"></path><path d="M699 600L836 531L680 483Z" fill="#19435d" stroke="#19435d"></path><path d="M900 196L803 112L793 239Z" fill="#19435d" stroke="#19435d"></path><path d="M793 239L803 112L697 194Z" fill="#19435d" stroke="#19435d"></path><path d="M465 0L370 0L392 109Z" fill="#00101c" stroke="#00101c"></path><path d="M331 90L208 73L263 163Z" fill="#277297" stroke="#277297"></path><path d="M699 600L802 600L836 531Z" fill="#0c2435" stroke="#0c2435"></path><path d="M803 112L676 0L683 121Z" fill="#297ea6" stroke="#297ea6"></path><path d="M900 475L900 370L795 371Z" fill="#1d4e6b" stroke="#1d4e6b"></path><path d="M835 323L900 276L793 239Z" fill="#00101c" stroke="#00101c"></path><path d="M900 370L900 276L835 323Z" fill="#0c2435" stroke="#0c2435"></path><path d="M79 360L135 480L233 405Z" fill="#1d4e6b" stroke="#1d4e6b"></path><path d="M189 509L200 600L322 600Z" fill="#15384f" stroke="#15384f"></path><path d="M69 600L200 600L189 509Z" fill="#205a7a" stroke="#205a7a"></path><path d="M900 600L900 475L836 531Z" fill="#081a28" stroke="#081a28"></path><path d="M836 531L900 475L795 371Z" fill="#19435d" stroke="#19435d"></path><path d="M370 0L298 0L331 90Z" fill="#277297" stroke="#277297"></path><path d="M212 211L86 221L186 262Z" fill="#205a7a" stroke="#205a7a"></path><path d="M900 276L900 196L793 239Z" fill="#112e42" stroke="#112e42"></path><path d="M803 112L826 0L676 0Z" fill="#277297" stroke="#277297"></path><path d="M298 0L208 73L331 90Z" fill="#277297" stroke="#277297"></path><path d="M186 262L79 360L233 405Z" fill="#277297" stroke="#277297"></path><path d="M65 272L79 360L186 262Z" fill="#297ea6" stroke="#297ea6"></path><path d="M900 196L900 121L803 112Z" fill="#081a28" stroke="#081a28"></path><path d="M115 125L86 221L212 211Z" fill="#297ea6" stroke="#297ea6"></path><path d="M86 221L65 272L186 262Z" fill="#19435d" stroke="#19435d"></path><path d="M802 600L900 600L836 531Z" fill="#246688" stroke="#246688"></path><path d="M208 73L115 125L212 211Z" fill="#081a28" stroke="#081a28"></path><path d="M0 175L0 292L65 272Z" fill="#00101c" stroke="#00101c"></path><path d="M115 0L115 125L208 73Z" fill="#297ea6" stroke="#297ea6"></path><path d="M900 121L826 0L803 112Z" fill="#00101c" stroke="#00101c"></path><path d="M298 0L204 0L208 73Z" fill="#205a7a" stroke="#205a7a"></path><path d="M0 434L135 480L79 360Z" fill="#205a7a" stroke="#205a7a"></path><path d="M0 517L69 600L135 480Z" fill="#1d4e6b" stroke="#1d4e6b"></path><path d="M135 480L69 600L189 509Z" fill="#277297" stroke="#277297"></path><path d="M900 121L900 0L826 0Z" fill="#1d4e6b" stroke="#1d4e6b"></path><path d="M0 175L65 272L86 221Z" fill="#15384f" stroke="#15384f"></path><path d="M65 272L0 292L79 360Z" fill="#297ea6" stroke="#297ea6"></path><path d="M0 292L0 434L79 360Z" fill="#246688" stroke="#246688"></path><path d="M204 0L115 0L208 73Z" fill="#081a28" stroke="#081a28"></path><path d="M115 125L0 175L86 221Z" fill="#112e42" stroke="#112e42"></path><path d="M0 434L0 517L135 480Z" fill="#00101c" stroke="#00101c"></path><path d="M0 62L0 175L115 125Z" fill="#0c2435" stroke="#0c2435"></path><path d="M0 517L0 600L69 600Z" fill="#081a28" stroke="#081a28"></path><path d="M115 0L0 62L115 125Z" fill="#15384f" stroke="#15384f"></path><path d="M115 0L0 0L0 62Z" fill="#00101c" stroke="#00101c"></path></g></svg>